<?xml version="1.0" standalone="no"?>
<!DOCTYPE svg PUBLIC "-//W3C//DTD SVG 20010904//EN"
 "http://www.w3.org/TR/2001/REC-SVG-20010904/DTD/svg10.dtd">
<svg version="1.0" xmlns="http://www.w3.org/2000/svg"
 width="512.000000pt" height="512.000000pt" viewBox="0 0 512.000000 512.000000"
 preserveAspectRatio="xMidYMid meet">
<metadata>
Created by potrace 1.11, written by Peter Selinger 2001-2013
</metadata>
<g transform="translate(0.000000,512.000000) scale(0.100000,-0.100000)"
fill="#000000" stroke="none">
<path d="M2390 4860 c-293 -23 -567 -96 -825 -219 -966 -461 -1482 -1484
-1279 -2532 136 -705 597 -1305 1247 -1624 337 -165 641 -235 1022 -235 380 0
685 70 1020 234 249 122 440 260 633 455 554 560 783 1387 597 2161 -59 241
-176 513 -312 720 -322 488 -838 849 -1408 983 -215 51 -488 73 -695 57z m590
-1440 l0 -430 287 0 288 0 -490 -490 c-269 -269 -497 -490 -505 -490 -8 0
-236 220 -505 490 l-490 490 288 0 287 0 0 430 0 430 420 0 420 0 0 -430z
m560 -1855 l0 -135 -990 0 -990 0 0 135 0 135 990 0 990 0 0 -135z"/>
</g>
</svg>
